<svg width="24" height="24" viewBox="0 0 24 24" fill="none" xmlns="http://www.w3.org/2000/svg">
<g id="GitHub">
<g id="GitHub_2">
<rect id="Rectangle" width="24" height="24" rx="12" fill="#A8B7C7"/>
<path id="Exclude" fill-rule="evenodd" clip-rule="evenodd" d="M15.7113 23.4144C14.5425 23.7945 13.2951 24 12 24C10.7041 24 9.45591 23.7943 8.28642 23.4136C8.82666 23.4784 9.02628 23.1266 9.02628 22.8229C9.02628 22.6907 9.02402 22.4575 9.02101 22.1456C9.01751 21.7846 9.013 21.3182 9.00978 20.7808C5.67153 21.5065 4.96728 19.1709 4.96728 19.1709C4.42203 17.784 3.63528 17.4147 3.63528 17.4147C2.54553 16.6694 3.71778 16.6846 3.71778 16.6846C4.92153 16.7694 5.55528 17.9221 5.55528 17.9221C6.62628 19.7572 8.36403 19.2274 9.04803 18.9196C9.15678 18.1436 9.46728 17.6143 9.81003 17.3142C7.14528 17.0111 4.34403 15.9813 4.34403 11.3799C4.34403 10.0687 4.81128 8.99704 5.57928 8.15715C5.45553 7.85327 5.04378 6.63288 5.69628 4.97947C5.69628 4.97947 6.70428 4.65671 8.99628 6.21032C9.95403 5.94382 10.98 5.81113 12.0008 5.80571C13.02 5.81094 14.0468 5.94382 15.0053 6.21032C17.2958 4.65671 18.3015 4.97947 18.3015 4.97947C18.9563 6.63288 18.5445 7.85327 18.4208 8.15715C19.1903 8.99704 19.6545 10.0687 19.6545 11.3799C19.6545 15.9925 16.8488 17.0081 14.1758 17.3052C14.6063 17.676 14.9903 18.4084 14.9903 19.529C14.9903 20.6025 14.9836 21.537 14.9791 22.1563C14.9769 22.4631 14.9753 22.6925 14.9753 22.8231C14.9753 23.1282 15.1701 23.4807 15.7113 23.4144Z" fill="white"/>
</g>
</g>
</svg>
