<svg width="46" height="46" viewBox="0 0 46 46" fill="none" xmlns="http://www.w3.org/2000/svg">
<path d="M42.3108 14.9788L30.8046 3.44068C29.432 2.14644 27.7969 1.16266 26.0104 0.556131C22.0711 -0.754294 18.1558 0.268489 14.9836 3.44068L3.44554 14.9788C2.14827 16.3492 1.16409 17.985 0.561014 19.773C-0.757402 23.7123 0.265357 27.6276 3.44554 30.7998L14.9836 42.3459C16.3563 43.6402 17.9914 44.6239 19.7779 45.2304C20.8522 45.5901 21.977 45.7762 23.1099 45.7818C24.5573 45.7539 25.9843 45.4353 27.3061 44.8451C28.628 44.2549 29.8177 43.405 30.8046 42.3459L42.3427 30.7998C43.6416 29.4306 44.6261 27.7945 45.2274 26.0055C46.5458 22.0663 45.5149 18.143 42.3427 14.9708L42.3108 14.9788ZM23.7971 6.78066C24.667 7.0591 25.4678 7.51941 26.1463 8.13104L29.5581 11.5429L22.9021 18.1909L16.2542 11.5429L19.682 8.10707C20.6009 7.19616 21.8953 6.21334 23.7971 6.78066V6.78066ZM6.80946 21.9624C7.0939 21.0975 7.55365 20.3005 8.15989 19.6212L11.5718 16.2013L18.2278 22.8573L11.5718 29.5053L8.14389 26.0775C7.225 25.1586 6.25013 23.8641 6.80946 21.9624ZM21.9912 38.95C21.1136 38.6687 20.3051 38.2059 19.6181 37.5916L16.2062 34.1797L22.8542 27.5237L29.5102 34.1797L26.0743 37.6076C25.1634 38.5265 23.8609 39.5093 21.9672 38.942L21.9912 38.95ZM38.9468 23.7602C38.6685 24.6286 38.2113 25.4288 37.6045 26.1094L34.1846 29.5213L27.5366 22.8733L34.1846 16.2173L37.6205 19.6532C38.5394 20.5721 39.5141 21.8665 38.9468 23.7602Z" fill="#00ACE4"/>
</svg>
