<svg version="1.1" id="Layer_1" xmlns:x="ns_extend;" xmlns:i="ns_ai;" xmlns:graph="ns_graphs;" xmlns="http://www.w3.org/2000/svg" xmlns:xlink="http://www.w3.org/1999/xlink" x="0px" y="0px" viewBox="0 0 685.1 100" style="enable-background:new 0 0 685.1 100;" xml:space="preserve">
 <style type="text/css">
  .st0{fill-rule:evenodd;clip-rule:evenodd;fill:#FFFFFF;}
	.st1{fill:#FFFFFF;}
	.st2{fill-rule:evenodd;clip-rule:evenodd;fill:#62D84E;}
 </style>
 <metadata>
  <sfw xmlns="ns_sfw;">
   <slices>
   </slices>
   <sliceSourceBounds bottomLeftOrigin="true" height="100" width="685.1" x="-276.5" y="-40.1">
   </sliceSourceBounds>
  </sfw>
 </metadata>
 <g>
  <path class="st0" d="M164.9,30.8c-6.9,0-13.6,2.4-18.9,6.8v-6.1h-17.2v67.1h17.9V55.7c3.9-5.1,9.9-8.1,16.3-8.3
		c2.4-0.1,4.9,0.2,7.2,1.1V31.3C168.4,31,166.6,30.8,164.9,30.8">
  </path>
  <path class="st0" d="M8.7,78.1c5.1,4.3,11.6,6.7,18.3,6.6c4.8,0,8.5-2.4,8.5-5.7C35.5,69,3.1,72.6,3.1,51
		c0-12.9,12.4-20.9,25.6-20.9c8,0,15.9,2.4,22.6,6.8l-8.4,13c-3.7-2.8-8.2-4.4-12.8-4.6c-5,0-9.1,1.9-9.1,5.4
		c0,8.7,32.4,5.3,32.4,28.5c0,12.9-12.6,20.7-26.6,20.7C17.2,99.9,7.8,96.7,0,91L8.7,78.1z">
  </path>
  <path class="st0" d="M121.1,64.4c0-18.7-13.1-34.3-31.6-34.3c-19.8,0-32.5,16.3-32.5,35c-0.8,18.5,13.6,34.1,32,34.9c1,0,2,0,3,0
		c10.4,0.1,20.4-4.2,27.4-12l-10.2-10.2c-4.3,4.8-10.4,7.6-16.8,7.7c-9.3,0.3-17.2-6.7-18.1-15.9h46.3
		C121,67.9,121.1,66.1,121.1,64.4z M75.2,56.4c1.3-6.9,7.3-11.8,14.3-11.8c6.7,0,12.4,5.1,13.2,11.8H75.2z">
  </path>
  <polygon class="st0" points="212.8,72.4 231.1,31.5 249.7,31.5 219,98.6 206.6,98.6 175.9,31.5 194.5,31.5 	">
  </polygon>
  <path class="st0" d="M264.8,0c6.4,0.1,11.4,5.4,11.3,11.7c-0.1,6.4-5.4,11.4-11.7,11.3c-6.3-0.1-11.3-5.2-11.3-11.5
		c0-6.4,5.1-11.5,11.5-11.5C264.6,0,264.7,0,264.8,0">
  </path>
  <rect x="255.8" y="31.5" class="st1" width="17.9" height="67.1">
  </rect>
  <path class="st0" d="M347.8,84.9c-6.9,9.9-18.3,15.5-30.3,15.1c-19.3,0.5-35.3-14.8-35.8-34s14.8-35.3,34-35.8c0.6,0,1.3,0,1.9,0
		c10.9-0.1,21.3,4.9,28.1,13.4L333,54.7c-3.6-5-9.3-7.9-15.4-8c-9.9,0-18,8-18,17.9c0,0.2,0,0.3,0,0.5c-0.3,9.8,7.3,17.9,17.1,18.3
		c0.5,0,0.9,0,1.4,0c6.5-0.1,12.4-3.4,16-8.8L347.8,84.9z">
  </path>
  <path class="st0" d="M412.8,87.9c-7,7.8-17,12.2-27.4,12c-18.5,0.9-34.1-13.4-35-31.9c0-1,0-2,0-3c0-18.7,12.7-35,32.5-35
		c18.5,0,31.6,15.6,31.6,34.3c0,1.7-0.1,3.4-0.4,5.1h-46.3c0.9,9.2,8.8,16.2,18.1,15.9c6.4-0.2,12.5-3,16.8-7.7L412.8,87.9z
		 M396.2,56.4c-0.8-6.7-6.5-11.7-13.2-11.8c-7,0-13,4.9-14.3,11.8H396.2z">
  </path>
  <path class="st0" d="M421.6,98.6V31.5h17.2v5.4c5.3-4.4,12-6.8,18.9-6.8c8.9,0,17.4,3.9,23.2,10.8c5.2,6.7,7.6,15.1,6.9,23.5v34.1
		h-17.9V63c0.5-4.6-0.9-9.1-4-12.6c-2.7-2.5-6.3-3.9-10.1-3.7c-6.4,0.2-12.4,3.2-16.3,8.3v43.6H421.6z">
  </path>
  <path class="st2" d="M533.9,30.1c-21.7,0-39.3,17.5-39.3,39.1c0,10.8,4.4,21.2,12.3,28.6c2.8,2.6,7,2.9,10.1,0.5
		c9.9-7.4,23.5-7.4,33.4,0c3.1,2.3,7.4,2.1,10.1-0.6c15.7-14.9,16.4-39.7,1.5-55.5C554.6,34.6,544.5,30.2,533.9,30.1 M533.7,88.9
		c-10.5,0.3-19.2-8-19.5-18.5c0-0.3,0-0.7,0-1c0-10.8,8.7-19.5,19.5-19.5s19.5,8.7,19.5,19.5c0.3,10.5-8,19.2-18.5,19.5
		C534.3,88.9,534,88.9,533.7,88.9">
  </path>
  <polygon class="st0" points="608.2,98.6 594.8,98.6 568.2,31.5 586.1,31.5 600.7,69.8 615,31.5 629.9,31.5 644.1,69.8 658.8,31.5 
		676.7,31.5 650.1,98.6 636.8,98.6 622.5,60.4 	">
  </polygon>
  <path class="st1" d="M676.9,91h-1.5v2.8h-1.3v-7.8h3.1c1.4,0,2.5,1.1,2.5,2.5c0,0,0,0,0,0c0,1-0.6,1.9-1.5,2.3l1.8,3h-1.4L676.9,91
		z M675.4,89.9h1.9c0.7,0,1.3-0.6,1.3-1.3s-0.6-1.3-1.3-1.3h-1.8L675.4,89.9z">
  </path>
  <path class="st1" d="M676.7,82.9c4,0,7.2,3.2,7.2,7.2c0,4-3.2,7.2-7.2,7.2c-4,0-7.2-3.2-7.2-7.2c0,0,0,0,0,0
		C669.5,86.1,672.7,82.9,676.7,82.9 M676.7,81.7c-4.6,0-8.4,3.7-8.4,8.4s3.7,8.4,8.4,8.4c4.6,0,8.4-3.7,8.4-8.4
		C685.1,85.5,681.3,81.7,676.7,81.7L676.7,81.7z">
  </path>
 </g>
</svg>